<mxfile host="app.diagrams.net" modified="2021-07-20T06:05:35.873Z" agent="5.0 (Windows NT 10.0; Win64; x64) AppleWebKit/537.36 (KHTML, like Gecko) Chrome/91.0.4472.164 Safari/537.36" etag="DFtEq5m7emDjg39Fafau" version="14.9.0" type="github">
  <diagram id="4MYYST5Vs4MU-KJ0KHC7" name="Page-1">
    <mxGraphModel dx="813" dy="528" grid="1" gridSize="10" guides="1" tooltips="1" connect="1" arrows="1" fold="1" page="1" pageScale="1" pageWidth="827" pageHeight="1169" math="0" shadow="0">
      <root>
        <mxCell id="0" />
        <mxCell id="1" parent="0" />
        <mxCell id="yULjcD5FWjNXVMH6ahw0-14" value="" style="rounded=1;whiteSpace=wrap;html=1;strokeWidth=2;fillWeight=1;hachureGap=4;hachureAngle=45;sketch=1;fillColor=#FFFFFF;" vertex="1" parent="1">
          <mxGeometry x="30" y="110" width="380" height="130" as="geometry" />
        </mxCell>
        <mxCell id="yULjcD5FWjNXVMH6ahw0-5" style="edgeStyle=orthogonalEdgeStyle;rounded=0;orthogonalLoop=1;jettySize=auto;html=1;entryX=0.5;entryY=0;entryDx=0;entryDy=0;curved=1;sketch=1;" edge="1" parent="1" source="yULjcD5FWjNXVMH6ahw0-1" target="yULjcD5FWjNXVMH6ahw0-2">
          <mxGeometry relative="1" as="geometry" />
        </mxCell>
        <mxCell id="yULjcD5FWjNXVMH6ahw0-6" style="edgeStyle=orthogonalEdgeStyle;curved=1;rounded=0;orthogonalLoop=1;jettySize=auto;html=1;entryX=0.5;entryY=0;entryDx=0;entryDy=0;sketch=1;" edge="1" parent="1" source="yULjcD5FWjNXVMH6ahw0-1" target="yULjcD5FWjNXVMH6ahw0-3">
          <mxGeometry relative="1" as="geometry" />
        </mxCell>
        <mxCell id="yULjcD5FWjNXVMH6ahw0-1" value="pub&lt;br&gt;clients info" style="rounded=1;whiteSpace=wrap;html=1;strokeWidth=2;fillWeight=1;hachureGap=4;hachureAngle=45;sketch=1;fillColor=#d5e8d4;strokeColor=#82b366;" vertex="1" parent="1">
          <mxGeometry x="120" y="40" width="120" height="40" as="geometry" />
        </mxCell>
        <mxCell id="yULjcD5FWjNXVMH6ahw0-9" style="edgeStyle=orthogonalEdgeStyle;curved=1;rounded=0;sketch=1;orthogonalLoop=1;jettySize=auto;html=1;entryX=0.5;entryY=0;entryDx=0;entryDy=0;" edge="1" parent="1" source="yULjcD5FWjNXVMH6ahw0-2" target="yULjcD5FWjNXVMH6ahw0-8">
          <mxGeometry relative="1" as="geometry" />
        </mxCell>
        <mxCell id="yULjcD5FWjNXVMH6ahw0-2" value="clients info" style="rounded=1;whiteSpace=wrap;html=1;strokeWidth=2;fillWeight=1;hachureGap=4;hachureAngle=45;sketch=1;fillColor=#FFFFFF;" vertex="1" parent="1">
          <mxGeometry x="40" y="120" width="120" height="40" as="geometry" />
        </mxCell>
        <mxCell id="yULjcD5FWjNXVMH6ahw0-3" value="" style="rounded=1;whiteSpace=wrap;html=1;strokeWidth=2;fillWeight=1;hachureGap=4;hachureAngle=45;sketch=1;fillColor=#FFFFFF;" vertex="1" parent="1">
          <mxGeometry x="200" y="120" width="120" height="40" as="geometry" />
        </mxCell>
        <mxCell id="yULjcD5FWjNXVMH6ahw0-38" style="edgeStyle=orthogonalEdgeStyle;curved=1;rounded=0;sketch=1;orthogonalLoop=1;jettySize=auto;html=1;entryX=0.5;entryY=0;entryDx=0;entryDy=0;" edge="1" parent="1" source="yULjcD5FWjNXVMH6ahw0-4" target="yULjcD5FWjNXVMH6ahw0-37">
          <mxGeometry relative="1" as="geometry" />
        </mxCell>
        <mxCell id="yULjcD5FWjNXVMH6ahw0-4" value="..." style="rounded=1;whiteSpace=wrap;html=1;strokeWidth=2;fillWeight=1;hachureGap=4;hachureAngle=45;sketch=1;fillColor=#FFFFFF;" vertex="1" parent="1">
          <mxGeometry x="210" y="130" width="120" height="40" as="geometry" />
        </mxCell>
        <mxCell id="yULjcD5FWjNXVMH6ahw0-8" value="cache" style="rounded=1;whiteSpace=wrap;html=1;strokeWidth=2;fillWeight=1;hachureGap=4;hachureAngle=45;sketch=1;fillColor=#dae8fc;strokeColor=#6c8ebf;" vertex="1" parent="1">
          <mxGeometry x="40" y="190" width="120" height="40" as="geometry" />
        </mxCell>
        <mxCell id="yULjcD5FWjNXVMH6ahw0-10" value="" style="rounded=1;whiteSpace=wrap;html=1;strokeWidth=2;fillWeight=1;hachureGap=4;hachureAngle=45;sketch=1;fillColor=#dae8fc;strokeColor=#6c8ebf;" vertex="1" parent="1">
          <mxGeometry x="200" y="180" width="120" height="40" as="geometry" />
        </mxCell>
        <mxCell id="yULjcD5FWjNXVMH6ahw0-17" style="edgeStyle=orthogonalEdgeStyle;curved=1;rounded=0;sketch=1;orthogonalLoop=1;jettySize=auto;html=1;entryX=0.417;entryY=1;entryDx=0;entryDy=0;entryPerimeter=0;" edge="1" parent="1" source="yULjcD5FWjNXVMH6ahw0-16" target="yULjcD5FWjNXVMH6ahw0-8">
          <mxGeometry relative="1" as="geometry" />
        </mxCell>
        <mxCell id="yULjcD5FWjNXVMH6ahw0-39" style="edgeStyle=orthogonalEdgeStyle;curved=1;rounded=0;sketch=1;orthogonalLoop=1;jettySize=auto;html=1;entryX=0.5;entryY=1;entryDx=0;entryDy=0;" edge="1" parent="1" source="yULjcD5FWjNXVMH6ahw0-16" target="yULjcD5FWjNXVMH6ahw0-37">
          <mxGeometry relative="1" as="geometry" />
        </mxCell>
        <mxCell id="yULjcD5FWjNXVMH6ahw0-16" value="request" style="rounded=1;whiteSpace=wrap;html=1;strokeWidth=2;fillWeight=1;hachureGap=4;hachureAngle=45;sketch=1;fillColor=#e1d5e7;strokeColor=#9673a6;" vertex="1" parent="1">
          <mxGeometry x="111" y="270" width="120" height="40" as="geometry" />
        </mxCell>
        <mxCell id="yULjcD5FWjNXVMH6ahw0-23" value="hash" style="text;html=1;align=center;verticalAlign=middle;resizable=0;points=[];autosize=1;strokeColor=none;" vertex="1" parent="1">
          <mxGeometry x="191" y="250" width="40" height="20" as="geometry" />
        </mxCell>
        <mxCell id="yULjcD5FWjNXVMH6ahw0-30" value="hash" style="text;html=1;align=center;verticalAlign=middle;resizable=0;points=[];autosize=1;strokeColor=none;" vertex="1" parent="1">
          <mxGeometry x="110" y="250" width="40" height="20" as="geometry" />
        </mxCell>
        <mxCell id="yULjcD5FWjNXVMH6ahw0-31" value="sub" style="text;html=1;align=center;verticalAlign=middle;resizable=0;points=[];autosize=1;strokeColor=none;" vertex="1" parent="1">
          <mxGeometry x="120" y="80" width="30" height="20" as="geometry" />
        </mxCell>
        <mxCell id="yULjcD5FWjNXVMH6ahw0-33" value="sub" style="text;html=1;align=center;verticalAlign=middle;resizable=0;points=[];autosize=1;strokeColor=none;" vertex="1" parent="1">
          <mxGeometry x="201" y="80" width="30" height="20" as="geometry" />
        </mxCell>
        <mxCell id="yULjcD5FWjNXVMH6ahw0-35" value="&lt;span style=&quot;color: rgb(0 , 0 , 0) ; font-family: &amp;#34;helvetica&amp;#34; ; font-size: 12px ; font-style: normal ; font-weight: 400 ; letter-spacing: normal ; text-align: center ; text-indent: 0px ; text-transform: none ; word-spacing: 0px ; background-color: rgb(248 , 249 , 250) ; display: inline ; float: none&quot;&gt;distributed&lt;br&gt;&lt;/span&gt;&lt;span style=&quot;color: rgb(0 , 0 , 0) ; font-family: &amp;#34;helvetica&amp;#34; ; font-size: 12px ; font-style: normal ; font-weight: 400 ; letter-spacing: normal ; text-align: center ; text-indent: 0px ; text-transform: none ; word-spacing: 0px ; background-color: rgb(248 , 249 , 250) ; display: inline ; float: none&quot;&gt;hash&lt;/span&gt;&lt;br style=&quot;color: rgb(0 , 0 , 0) ; font-family: &amp;#34;helvetica&amp;#34; ; font-size: 12px ; font-style: normal ; font-weight: 400 ; letter-spacing: normal ; text-align: center ; text-indent: 0px ; text-transform: none ; word-spacing: 0px ; background-color: rgb(248 , 249 , 250)&quot;&gt;&lt;span style=&quot;color: rgb(0 , 0 , 0) ; font-family: &amp;#34;helvetica&amp;#34; ; font-size: 12px ; font-style: normal ; font-weight: 400 ; letter-spacing: normal ; text-align: center ; text-indent: 0px ; text-transform: none ; word-spacing: 0px ; background-color: rgb(248 , 249 , 250) ; display: inline ; float: none&quot;&gt;cache&lt;br&gt;&lt;/span&gt;&lt;span style=&quot;color: rgb(0 , 0 , 0) ; font-family: &amp;#34;helvetica&amp;#34; ; font-size: 12px ; font-style: normal ; font-weight: 400 ; letter-spacing: normal ; text-align: center ; text-indent: 0px ; text-transform: none ; word-spacing: 0px ; background-color: rgb(248 , 249 , 250) ; display: inline ; float: none&quot;&gt;ring&lt;/span&gt;" style="rounded=1;whiteSpace=wrap;html=1;strokeWidth=2;fillWeight=1;hachureGap=4;hachureAngle=45;sketch=1;fillColor=#FFFFFF;dashed=1;strokeColor=#67AB9F;" vertex="1" parent="1">
          <mxGeometry x="340" y="120" width="60" height="110" as="geometry" />
        </mxCell>
        <mxCell id="yULjcD5FWjNXVMH6ahw0-37" value="...." style="rounded=1;whiteSpace=wrap;html=1;strokeWidth=2;fillWeight=1;hachureGap=4;hachureAngle=45;sketch=1;fillColor=#dae8fc;strokeColor=#6c8ebf;" vertex="1" parent="1">
          <mxGeometry x="210" y="190" width="120" height="40" as="geometry" />
        </mxCell>
      </root>
    </mxGraphModel>
  </diagram>
</mxfile>
